# xmcd
#
# Track frame offsets:
#	182
#	22305
#	33102
#	52462
#	61912
#	74740
#	85097
#	104797
#	115437
#	140832
#	152942
#	166232
#
# Disc length: 2347 seconds
#
# Revision: 2
# Processed by: cddbd v1.5.2PL0 Copyright (c) Steve Scherf et al.
# Submitted via: audiograbber 1.83.01
#
DISCID=bb09290c
DTITLE=The Golden Nightingale Orchestra - The Golden Nightingale Orchestra - Go
DTITLE=lden Big Bands Melodies and Marches Part 2
DYEAR=1988
DGENRE=Instrumental
TTITLE0=Lil' Darlin'
TTITLE1=On the double eagly
TTITLE2=Sophisticated Lady
TTITLE3=When the saints go marchin' in
TTITLE4=This time the dream's on me
TTITLE5=Officer of the days
TTITLE6=In a sentimental mood
TTITLE7=Yankee Doodle
TTITLE8=I remember Clifford
TTITLE9=Highschool Kadett
TTITLE10=Theme and variations
TTITLE11=Barataria
EXTD=
EXTT0=
EXTT1=
EXTT2=
EXTT3=
EXTT4=
EXTT5=
EXTT6=
EXTT7=
EXTT8=
EXTT9=
EXTT10=
EXTT11=
PLAYORDER=
